<?xml version="1.0"?>
<svg width="400" height="400" xmlns="http://www.w3.org/2000/svg" xmlns:svg="http://www.w3.org/2000/svg">
 <defs>
  <radialGradient r="264.28571" id="radialGradient4095" gradientUnits="userSpaceOnUse" gradientTransform="matrix(.76551,3.811242e-2,-1.245464e-2,.27657,-74.15655,1409.741)" cy="1926.6479" cx="-418.57144">
   <stop offset="0"/>
   <stop stop-opacity="0" offset="1"/>
  </radialGradient>
 </defs>
 <g>
  <title>Layer 1</title>
  <g id="svg_1" transform="matrix(0.8639,0,0,0.8639,576.37178,-842.4053) ">
   <path id="svg_2" opacity="0.47431" fill-rule="evenodd" fill="url(#radialGradient4095)" d="m-37.240836,1329.938803a335.930923,110.19337 0 1 1 -671.861834,28.688832a335.930923,110.19337 0 1 1 671.861834,-28.688832z"/>
   <path id="svg_3" fill-rule="evenodd" d="m-483.15171,995.436149c-14.03891,5.1348 -46.20591,12.0291 -60.33079,16.9612c-3.79958,1.3267 -15.6549,-0.0341 -23.48289,1.5584c-18.71799,3.8079 -33.12322,10.1478 -51.04522,16.6947c-10.80298,7.1483 -13.34726,21.4656 -12.21247,33.6047c-4.8062,108.5543 -11.13669,217.0591 -14.62753,325.6596c2.58954,14.8053 19.05439,23.3145 33.15681,21.174c88.78343,3.8088 177.54783,8.0736 266.33809,11.7142c16.91111,-4.5888 90.55925,-46.123 114.8327,-70.0663c13.7383,-101.6998 -6.51157,-284.8334 -16.58887,-334.6462c-42.73416,-26.0953 -175.92937,-26.7659 -236.03983,-22.6543z"/>
   <path id="svg_4" fill-rule="evenodd" fill="#728b9d" d="m-427.17269,1008.039549c-17.13408,-0.002 -34.14241,0.3376 -51.4961,0.6343l-52.27137,17.9484l-24.54993,-0.4698l-48.04267,15.4112c-5.81169,-0.2737 -10.72081,4.1729 -10.99461,9.9845l-15.69315,333.0332c-0.2738,5.8117 4.19621,10.6973 10.00791,10.9711l272.02255,12.1223c35.27566,-13.9685 69.87527,-34.5758 103.50906,-65.3333c5.87212,-101.4302 -0.63672,-287.7095 -16.76119,-316.3602c-44.21709,-19.1929 -116.62042,-17.9357 -165.7305,-17.9417z"/>
   <path id="svg_5" opacity="0.3" fill-rule="evenodd" fill="#fff" d="m-603.53614,1041.550449l253.64705,11.9505c5.81167,0.2738 10.26994,5.173 9.99613,10.9846l-3.4698,332.0392c-0.27382,5.8117 -5.17296,10.2699 -10.98463,9.9961l-265.86793,-10.958c-5.81169,-0.2739 -10.26998,-5.173 -9.99611,-10.9847l15.69068,-333.0316c0.27379,-5.8117 5.17291,-10.27 10.98461,-9.9961z"/>
   <path id="svg_6" fill-rule="evenodd" fill="#fff" d="m-600.05583,1061.626549c-16.59543,4.8213 8.32665,21.2219 6.08052,3.9355c-0.8825,-2.4707 -3.48068,-4.1195 -6.08052,-3.9355zm73.83771,0.1174c-16.6208,3.5833 6.65795,21.4075 5.6672,4.2844c-0.68804,-2.4838 -3.10954,-4.2723 -5.6672,-4.2844zm78.63023,4.2287c-16.59022,3.6086 6.69645,21.3952 5.68703,4.2844c-0.6983,-2.4849 -3.1262,-4.2701 -5.68703,-4.2844zm81.21444,10.5248c-19.01238,6.8796 12.87047,20.1257 4.30205,1.7826l-1.93411,-1.3043l-2.36794,-0.4783zm-235.79673,62.4202c-16.59393,4.8216 8.3026,21.2594 6.08067,3.9555c-0.88054,-2.4733 -3.47407,-4.1413 -6.08067,-3.9555zm236.8774,14.9179c-19.0124,6.8796 12.87044,20.1258 4.30206,1.7826l-1.93412,-1.3042l-2.36794,-0.4784zm-239.72006,53.7514c-16.55401,4.8639 8.32057,21.2376 6.08067,3.9555c-0.88047,-2.4734 -3.47407,-4.1413 -6.08067,-3.9555zm239.72006,14.9649c-17.41633,4.4686 8.27104,21.5312 5.6063,3.7365c-0.90516,-2.2125 -3.20456,-3.7716 -5.6063,-3.7365zm-244.1367,66.2026c-16.59528,4.8213 8.32651,21.2218 6.08068,3.9356c-0.8825,-2.4709 -3.48091,-4.1196 -6.08068,-3.9356zm243.05603,15.0823c-17.4143,4.4471 8.27588,21.5029 5.6063,3.7167c-0.90651,-2.2098 -3.21081,-3.7525 -5.6063,-3.7167zm-247.82502,57.4398c-16.58814,4.8115 8.29057,21.2614 6.05715,3.9554c-0.87784,-2.4632 -3.45791,-4.1348 -6.05715,-3.9554zm82.60051,8.6923c-16.58904,3.6148 6.67674,21.3948 5.68703,4.2844c-0.69831,-2.4849 -3.12621,-4.2701 -5.68703,-4.2844zm78.65373,4.2287c-16.62081,3.5834 6.65806,21.4074 5.6672,4.2844c-0.68803,-2.4838 -3.10954,-4.2723 -5.6672,-4.2844zm84.78533,2.3023c-19.01235,6.8797 12.87048,20.1257 4.30206,1.7825l-1.93412,-1.3041l-2.36794,-0.4784z"/>
   <path id="svg_7" fill-rule="evenodd" fill="#728b9d" d="m-580.52378,1096.131549l-7.70223,255.3562l191.06538,9.1545l1.84918,-254.1567l-185.21233,-10.354z"/>
   <path id="svg_8" opacity="0.5" d="m-486.18243,1173.834249c-11.18929,-0.0001 -21.67429,3.2849 -30.78125,9c-2.16145,-4.0623 -6.45534,-6.8438 -11.375,-6.8438c-7.09714,0 -12.84378,5.7779 -12.84375,12.875c0,4.6421 2.46539,8.6772 6.15625,10.9375c-8.76641,12.0322 -14.03125,27.3437 -14.03125,44.0313c-0.00001,27.9998 14.8365,52.1517 36.1875,63.3437c-1.19268,1.9504 -1.87499,4.2355 -1.875,6.6875c0,7.0971 5.74659,12.8436 12.84375,12.8438s12.87501,-5.7467 12.875,-12.8438c0,-0.042 0.0004,-0.0831 0,-0.125c0.94767,0.0473 1.88568,0.0938 2.84375,0.0938c34.69712,-0.0001 62.84375,-31.3601 62.84375,-70c0,-9.9619 -1.87842,-19.4187 -5.25,-28c6.20659,-0.9111 10.96874,-6.2293 10.96875,-12.6876c0,-7.0971 -5.74658,-12.875 -12.84375,-12.875c-4.21721,0 -7.96751,2.0478 -10.3125,5.1876c-11.4422,-13.3203 -27.55671,-21.625 -45.40625,-21.625zm-1.4375,22.75c12.74874,-0.0001 24.24702,5.9375 32.4375,15.4374l-14.5,11.8438c-5.17451,-6.2196 -12.57308,-10.125 -20.78125,-10.125c-4.68552,0 -9.10585,1.285 -13,3.5312l-8.78125,-12.5c7.07772,-5.1695 15.53555,-8.1874 24.625,-8.1874zm-33.84375,17.125l9.28125,11.3437c-4.1147,5.4765 -6.62499,12.5249 -6.625,20.2187c0,12.7321 6.80205,23.7065 16.5625,28.6876l-3.40625,18.6874c-15.86792,-7.7509 -26.96875,-25.4173 -26.96875,-45.9374c-0.00001,-12.6396 4.21525,-24.1786 11.15625,-33zm73.28125,8.875c3.54184,7.1612 5.5625,15.3781 5.5625,24.125c-0.00001,27.6626 -20.16,50.125 -45,50.125c-1.96178,-0.0001 -3.88548,-0.1346 -5.78125,-0.4063l2.09375,-19.625c0.27866,0.009 0.56314,0.0312 0.84375,0.0313c15.63464,0 28.31248,-14.1512 28.3125,-31.5626c0,-4.0754 -0.70331,-7.9544 -1.96875,-11.5312l15.9375,-11.1562z"/>
   <path id="svg_9" fill="#d3d7cf" d="m-493.46814,1165.834249c-11.18929,-0.0001 -21.67429,3.2849 -30.78125,9c-2.16145,-4.0623 -6.45534,-6.8438 -11.375,-6.8438c-7.09714,0 -12.84378,5.7779 -12.84375,12.875c0,4.6421 2.46539,8.6772 6.15625,10.9375c-8.76641,12.0322 -14.03125,27.3437 -14.03125,44.0313c-0.00001,27.9998 14.8365,52.1517 36.1875,63.3437c-1.19268,1.9504 -1.87499,4.2355 -1.875,6.6875c0,7.0971 5.74659,12.8436 12.84375,12.8438s12.87501,-5.7467 12.875,-12.8438c0,-0.042 0.0004,-0.0831 0,-0.125c0.94767,0.0473 1.88568,0.0938 2.84375,0.0938c34.69712,-0.0001 62.84375,-31.3601 62.84375,-70c0,-9.9619 -1.87842,-19.4187 -5.25,-28c6.20659,-0.9111 10.96874,-6.2293 10.96875,-12.6876c0,-7.0971 -5.74658,-12.875 -12.84375,-12.875c-4.21721,0 -7.96751,2.0478 -10.3125,5.1876c-11.4422,-13.3203 -27.55671,-21.625 -45.40625,-21.625zm-1.4375,22.75c12.74874,-0.0001 24.24702,5.9375 32.4375,15.4374l-14.5,11.8438c-5.17451,-6.2196 -12.57308,-10.125 -20.78125,-10.125c-4.68552,0 -9.10585,1.285 -13,3.5312l-8.78125,-12.5c7.07772,-5.1695 15.53555,-8.1874 24.625,-8.1874zm-33.84375,17.125l9.28125,11.3437c-4.1147,5.4765 -6.62499,12.5249 -6.625,20.2187c0,12.7321 6.80205,23.7065 16.5625,28.6876l-3.40625,18.6874c-15.86792,-7.7509 -26.96875,-25.4173 -26.96875,-45.9374c-0.00001,-12.6396 4.21525,-24.1786 11.15625,-33zm73.28125,8.875c3.54184,7.1612 5.5625,15.3781 5.5625,24.125c-0.00001,27.6626 -20.16,50.125 -45,50.125c-1.96178,-0.0001 -3.88548,-0.1346 -5.78125,-0.4063l2.09375,-19.625c0.27866,0.009 0.56314,0.0312 0.84375,0.0313c15.63464,0 28.31248,-14.1512 28.3125,-31.5626c0,-4.0754 -0.70331,-7.9544 -1.96875,-11.5312l15.9375,-11.1562z"/>
   <path id="svg_10" opacity="0.2" fill-rule="evenodd" d="m-580.52378,1096.131549l-7.70223,255.3562l190.30598,9.914l-0.16449,-19.8889l-168.45765,-9.0072l5.41337,-234.4778l-19.39498,-1.8963z"/>
   <path id="svg_11" fill-rule="evenodd" fill="#fff" d="m-488.62253,1169.359749c-50.41555,-1.1312 -67.66071,36.6433 -64.16934,75.94c2.32835,-2.1332 2.72597,-63.3622 64.16934,-75.94z"/>
   <path id="svg_12" opacity="0.5" fill-rule="evenodd" fill="#fff" d="m-550.79154,1092.308049c-14.36177,-0.0745 -25.11375,0.7048 -29.10751,2.8191l177.72265,8.5749c0.00002,0 -97.32307,-11.1277 -148.61514,-11.394z"/>
   <path id="svg_13" opacity="0.3" fill-rule="evenodd" d="m-565.8034,1024.930849l-44.80064,16.7033l268.07573,14.4481l-1.52703,347.0349l-18.98214,5.3093l15.19981,2.2789l48.91191,-27.5571l-3.55412,-332.2625c11.51928,-10.6743 13.24809,-13.8204 35.09481,-22.6257c-22.00192,0.5927 -29.05087,5.4873 -41.55104,10.2667c-84.17884,-9.0937 -167.70198,-12.4807 -256.86729,-13.5959z"/>
   <path id="svg_14" fill-rule="evenodd" fill="#fff" d="m-489.34016,1217.558349c-1.41586,-3.9194 -32.54308,-5.1236 -23.71095,25.1738c0.14049,-1.529 -0.03127,-19.2987 23.71095,-25.1738z"/>
  </g>
 </g>
</svg>